<svg width="31" height="31" viewBox="0 0 31 31" fill="none" xmlns="http://www.w3.org/2000/svg">
<path fill-rule="evenodd" clip-rule="evenodd" d="M15.6119 0.102997C7.32882 0.102997 0.612061 6.98833 0.612061 15.4828C0.612061 22.2782 4.90998 28.0429 10.8699 30.0768C11.6193 30.2194 11.8945 29.7432 11.8945 29.337C11.8945 28.9702 11.8806 27.7587 11.8741 26.4736C7.70116 27.4039 6.82061 24.659 6.82061 24.659C6.13828 22.8813 5.15514 22.4086 5.15514 22.4086C3.79396 21.454 5.25773 21.4739 5.25773 21.4739C6.76373 21.5821 7.55709 23.0588 7.55709 23.0588C8.89493 25.4095 11.0661 24.73 11.9221 24.3373C12.0567 23.3433 12.4454 22.6645 12.8744 22.2805C9.54273 21.8921 6.04016 20.5731 6.04016 14.68C6.04016 13.0009 6.62637 11.6289 7.5859 10.5516C7.42991 10.1645 6.91649 8.60022 7.73097 6.48177C7.73097 6.48177 8.99031 6.06842 11.8568 8.05826C13.0535 7.71724 14.3369 7.54583 15.6119 7.53998C16.8862 7.54583 18.1704 7.71673 19.3694 8.05775C22.2323 6.06791 23.4902 6.48126 23.4902 6.48126C24.3066 8.59945 23.7932 10.164 23.6375 10.5511C24.5992 11.6284 25.1812 13.0004 25.1812 14.6795C25.1812 20.5866 21.6722 21.887 18.3321 22.268C18.8703 22.7453 19.3497 23.6815 19.3497 25.1161C19.3497 27.174 19.3323 28.8301 19.3323 29.3367C19.3323 29.746 19.6026 30.2256 20.3627 30.0745C26.3191 28.0386 30.6121 22.2756 30.6121 15.4828C30.6118 6.98884 23.8958 0.102997 15.6119 0.102997Z" fill="#181616"/>
<path d="M6.29322 22.1847C6.26018 22.2611 6.14294 22.284 6.03614 22.2318C5.92684 22.1819 5.86599 22.0778 5.90126 22.0011C5.93355 21.9221 6.05104 21.9005 6.15959 21.9532C6.26888 22.0034 6.33098 22.1086 6.29297 22.185L6.29322 22.1847ZM6.90079 22.8798C6.8295 22.9478 6.68965 22.9162 6.59477 22.8084C6.4964 22.7015 6.47802 22.5581 6.5508 22.4891C6.62482 22.4213 6.76045 22.4534 6.85881 22.5604C6.95667 22.6689 6.97605 22.811 6.90103 22.88L6.90079 22.8798ZM7.49246 23.7653C7.40055 23.831 7.25003 23.7696 7.15713 23.6328C7.06522 23.4958 7.06522 23.3316 7.15961 23.2661C7.25226 23.2004 7.40055 23.2597 7.49494 23.3952C7.58635 23.534 7.58635 23.6986 7.49246 23.7653ZM8.30246 24.6213C8.22049 24.7142 8.04513 24.6893 7.91696 24.5627C7.78605 24.4387 7.74954 24.2622 7.83176 24.1695C7.91522 24.0762 8.09133 24.1022 8.22024 24.228C8.35115 24.3518 8.39064 24.5286 8.30296 24.621L8.30246 24.6213ZM9.42022 25.1182C9.38371 25.2386 9.2153 25.2934 9.04515 25.2419C8.8755 25.1892 8.76447 25.0484 8.79924 24.9266C8.83402 24.8051 9.00367 24.7484 9.17481 24.8031C9.34446 24.8556 9.4555 24.9957 9.42022 25.1182ZM10.648 25.2101C10.6522 25.3369 10.5082 25.4419 10.3301 25.4444C10.1505 25.4487 10.0052 25.3458 10.0034 25.221C10.0034 25.0929 10.1445 24.9893 10.3239 24.9857C10.502 24.9824 10.6483 25.0843 10.6483 25.2098L10.648 25.2101ZM11.7901 25.0109C11.8115 25.1345 11.6875 25.2615 11.5104 25.2954C11.3366 25.3285 11.1751 25.2516 11.1528 25.1291C11.1314 25.0023 11.2576 24.8752 11.4314 24.8423C11.6088 24.811 11.7678 24.8854 11.7901 25.0109Z" fill="#181616"/>
</svg>
