<svg width="26" height="25" viewBox="0 0 26 25" fill="none" xmlns="http://www.w3.org/2000/svg">
<g clip-path="url(#clip0_1_14)">
<path d="M11.249 21.6331C17.1855 21.6331 21.998 16.7904 21.998 10.8166C21.998 4.84274 17.1855 0 11.249 0C5.3125 0 0.5 4.84274 0.5 10.8166C0.5 16.7904 5.3125 21.6331 11.249 21.6331Z" fill="black"/>
<path opacity="0.4" d="M23.8433 24.944C23.4257 24.9305 23.0287 24.7587 22.7317 24.4631L20.1862 21.4877C19.6404 20.9886 19.5958 20.1404 20.0861 19.5861C20.3156 19.3539 20.6277 19.2233 20.9532 19.2233C21.2786 19.2233 21.5907 19.3539 21.8202 19.5861L25.0216 22.1476C25.4827 22.6196 25.625 23.3203 25.3849 23.9365C25.1447 24.5527 24.567 24.9692 23.91 25L23.8433 24.944Z" fill="black"/>
</g>
<defs>
<clipPath id="clip0_1_14">
<rect width="25" height="25" fill="white" transform="translate(0.5)"/>
</clipPath>
</defs>
</svg>
