<svg width="140" height="78" viewBox="0 0 140 78" fill="none" xmlns="http://www.w3.org/2000/svg">
<g clip-path="url(#clip0_1_7)">
<path d="M139.989 27.6621C140.004 27.5539 140.004 27.4447 139.989 27.3366C140.003 27.2485 140.003 27.1586 139.989 27.0704L138.952 19.4672C138.802 18.5576 138.402 17.7074 137.797 17.0117L137.619 16.8046L137.293 16.4792L119.338 1.03619L119.842 1.53917C119.43 1.04688 118.913 0.65311 118.328 0.386873C117.744 0.120634 117.107 -0.0113102 116.464 0.000772757H111.013C110.126 -0.0167653 109.26 0.264666 108.554 0.79956C107.812 0.267888 106.919 -0.0121038 106.006 0.000772757H100.554C99.8391 -0.0108104 99.1338 0.166376 98.5094 0.514444C97.8851 0.862511 97.364 1.3691 96.9988 1.98291C96.4357 2.8596 96.2241 3.91588 96.4061 4.94134L97.0877 9.73397C96.6362 9.47843 96.1252 9.34584 95.6062 9.34941H69.2076C68.2605 9.35534 67.3351 9.63254 66.541 10.1482C65.7732 10.6281 65.1568 11.3153 64.7634 12.1303L62.719 10.3848C61.9144 9.64145 60.8524 9.23852 59.7563 9.26065H18.3363C17.3858 9.27794 16.4564 9.54308 15.6402 10.0298C14.5236 10.6824 13.7053 11.7435 13.3588 12.9882L0.203933 56.9209C-0.0418604 57.6448 -0.0660398 58.4255 0.134492 59.1632C0.335024 59.9008 0.751186 60.5623 1.32981 61.0628C1.48058 61.1903 1.63889 61.3089 1.80387 61.4176C1.80387 61.4176 1.53718 61.2401 1.38904 61.0923L19.3437 76.5648C20.1032 77.2631 21.0962 77.6533 22.1286 77.6594H63.8746C64.828 77.6347 65.758 77.3591 66.5708 76.8606C67.0304 76.6098 67.4417 76.2792 67.7855 75.8843L67.9336 75.6772L68.1707 75.3815L68.3484 75.0559L70.3039 76.7424C71.0525 77.4128 72.024 77.7817 73.0296 77.7778H114.864C115.817 77.7461 116.745 77.4711 117.561 76.979C118.01 76.7128 118.419 76.384 118.775 76.0027L118.923 75.7956L119.16 75.4999C119.286 75.3126 119.396 75.1147 119.486 74.908C119.583 74.7287 119.662 74.5405 119.723 74.346L131.723 34.2298V33.8748C131.737 33.7371 131.737 33.5983 131.723 33.4606V33.1944C131.737 33.1061 131.737 33.0163 131.723 32.928C131.736 32.7409 131.736 32.5531 131.723 32.3659H135.574C135.909 32.3966 136.247 32.3966 136.582 32.3659H136.848C137.065 32.3013 137.274 32.2119 137.471 32.0997H137.767L138.3 31.6855L138.537 31.508L138.952 30.9754V30.7981L139.248 30.295C139.232 30.1972 139.232 30.0971 139.248 29.9993C139.233 29.9513 139.233 29.8993 139.248 29.8513C139.311 29.6779 139.361 29.4998 139.396 29.3187C139.383 29.2604 139.383 29.1995 139.396 29.1412C139.382 29.0531 139.382 28.9631 139.396 28.875C139.396 28.875 139.989 27.7212 139.989 27.6621Z" fill="black"/>
<path d="M60.971 12.6333C61.1283 12.7753 61.2381 12.9621 61.2858 13.1684C61.3336 13.3747 61.3167 13.5906 61.2377 13.7871L48.1126 57.6901C47.9473 58.1694 47.6091 58.5702 47.1644 58.8144C46.8026 59.0561 46.3837 59.1988 45.9496 59.2286H4.23338C3.87712 59.2114 3.5396 59.0641 3.28527 58.8144C3.13397 58.6746 3.02779 58.493 2.98028 58.2929C2.93278 58.0926 2.94616 57.8828 3.01863 57.6901L16.1735 13.7871C16.325 13.3017 16.6525 12.8903 17.0919 12.6333C17.4598 12.409 17.8766 12.277 18.3067 12.2487H60.0229C60.3764 12.2521 60.7153 12.3896 60.971 12.6333ZM39.1944 48.8444L47.0458 22.6327H25.0619L17.24 48.8444H39.1944ZM100.791 13.077C100.933 13.2422 101.111 13.3732 101.311 13.4603C101.511 13.5473 101.728 13.5883 101.947 13.58H107.369C107.575 13.582 107.778 13.5314 107.96 13.4331C108.141 13.3347 108.295 13.1918 108.405 13.0179C108.502 12.882 108.57 12.7282 108.605 12.5655C108.641 12.4029 108.643 12.2348 108.613 12.0712L107.546 4.26096C107.445 3.89948 107.262 3.5657 107.013 3.28467C106.871 3.11951 106.693 2.98853 106.493 2.90146C106.293 2.81439 106.075 2.77347 105.857 2.78174H100.436C100.229 2.77974 100.026 2.83029 99.8441 2.92864C99.6627 3.02699 99.5093 3.16989 99.3986 3.34386C99.1912 3.75802 99.1023 4.02428 99.1912 4.26096L100.287 12.0712C100.344 12.4515 100.52 12.8039 100.791 13.077ZM118.005 4.20179C117.903 3.84029 117.721 3.50651 117.472 3.2255C117.335 3.06094 117.163 2.93 116.967 2.84278C116.772 2.75557 116.56 2.71442 116.346 2.72257H110.894C110.691 2.71679 110.49 2.76599 110.313 2.86494C110.136 2.96389 109.988 3.10895 109.887 3.28467C109.69 3.54713 109.604 3.87681 109.65 4.20179L110.746 12.012C110.815 12.3883 110.989 12.7372 111.25 13.0179C111.395 13.1798 111.573 13.3086 111.772 13.3954C111.972 13.4822 112.188 13.525 112.405 13.5208H117.857C118.059 13.5235 118.259 13.473 118.436 13.3743C118.613 13.2757 118.76 13.1324 118.864 12.9587C118.967 12.8264 119.039 12.6726 119.075 12.5088C119.111 12.345 119.11 12.1753 119.072 12.012L118.005 4.20179ZM96.0209 16.0355L95.4876 12.1895H69.2076C68.795 12.2122 68.3958 12.3451 68.052 12.5741C67.8339 12.6929 67.6439 12.8576 67.4956 13.0568C67.3474 13.256 67.2441 13.485 67.193 13.7279L65.0004 21.0647C64.9129 21.2481 64.883 21.4538 64.9147 21.6545C64.9466 21.8552 65.0384 22.0414 65.1782 22.189C65.428 22.4235 65.7541 22.5602 66.0967 22.5736H98.0358L90.1843 48.7853H58.3341C57.9234 48.7947 57.5235 48.9176 57.1787 49.1402C56.7597 49.406 56.4536 49.8169 56.3195 50.294L54.0974 57.631C54.0248 57.8192 54.0058 58.0238 54.0423 58.2221C54.0791 58.4206 54.1697 58.605 54.3046 58.7551C54.5467 59.0053 54.8753 59.1535 55.2232 59.1692H97.0579C97.4906 59.1321 97.9076 58.99 98.2726 58.7551C98.7101 58.5097 99.0383 58.1082 99.1912 57.631L111.22 17.5147H97.6801C97.4653 17.5189 97.252 17.4791 97.0532 17.3977C96.8545 17.3163 96.6747 17.195 96.5247 17.0413C96.2797 16.773 96.1065 16.4475 96.0209 16.0947V16.0355Z" fill="white"/>
</g>
<defs>
<clipPath id="clip0_1_7">
<rect width="140" height="77.7778" fill="white"/>
</clipPath>
</defs>
</svg>
